<svg width="36" height="36" viewBox="0 0 36 36" fill="none" xmlns="http://www.w3.org/2000/svg">
<circle cx="18" cy="18" r="18" fill="#CBD7E5"/>
<path d="M24.2609 25.0435V23.4783C24.2609 22.648 23.9311 21.8518 23.344 21.2647C22.7569 20.6777 21.9607 20.3478 21.1304 20.3478H14.8696C14.0393 20.3478 13.2431 20.6777 12.656 21.2647C12.0689 21.8518 11.7391 22.648 11.7391 23.4783V25.0435" stroke="#ECF0F5" stroke-width="2" stroke-linecap="round" stroke-linejoin="round"/>
<path d="M17.9999 17.2174C19.7288 17.2174 21.1304 15.8159 21.1304 14.087C21.1304 12.3581 19.7288 10.9565 17.9999 10.9565C16.2711 10.9565 14.8695 12.3581 14.8695 14.087C14.8695 15.8159 16.2711 17.2174 17.9999 17.2174Z" stroke="#ECF0F5" stroke-width="2" stroke-linecap="round" stroke-linejoin="round"/>
</svg>
