<svg width="120" height="33" viewBox="0 0 120 33" fill="#000" xmlns="http://www.w3.org/2000/svg">
<path d="M61.2617 7.22424C62.5831 8.40091 63.2485 10.0017 63.2485 12.0313C63.2485 13.1943 63.0221 14.2888 62.5647 15.3013C62.1073 16.3138 61.368 17.153 60.3376 17.8052C59.3073 18.4574 57.9813 18.7857 56.3549 18.7857H53.5642V24.9564H49.6738V5.45923H55.6572C58.069 5.45923 59.9357 6.04757 61.2617 7.22424ZM58.0968 14.5579C58.5449 14.2296 58.8637 13.8464 59.0624 13.4041C59.2611 12.9617 59.3581 12.5375 59.3581 12.1316C59.3581 11.4429 59.1502 10.7771 58.739 10.134C58.3278 9.49093 57.5331 9.16712 56.3503 9.16712H53.5596V15.0505H56.3225C57.0572 15.0505 57.6486 14.8863 58.0968 14.5579Z" fill="#000"/>
<path d="M71.1215 14.3619C71.6852 13.8694 72.2627 13.4817 72.8542 13.2081C73.4456 12.9344 73.9076 12.7976 74.2495 12.7976L74.0601 16.5055C73.9538 16.4873 73.8013 16.4781 73.6027 16.4781C72.8495 16.4781 72.1888 16.6742 71.6159 17.0619C71.043 17.4496 70.604 17.9513 70.2991 18.5578C69.9941 19.169 69.8417 19.7892 69.8417 20.4232V24.952H66.113V13.3814H69.4952L69.7909 16.0312C70.1143 15.4109 70.5578 14.8545 71.1215 14.3619Z" fill="#000"/>
<path d="M77.6679 7.93555C78.0884 7.57525 78.5689 7.39282 79.1048 7.39282C79.6223 7.39282 80.089 7.57525 80.5002 7.93555C80.9114 8.29585 81.1147 8.7428 81.1147 9.27185C81.1147 9.8009 80.9068 10.2433 80.5002 10.5945C80.089 10.9502 79.6223 11.1235 79.1048 11.1235C78.5689 11.1235 78.0884 10.9456 77.6679 10.5945C77.2475 10.2433 77.0349 9.8009 77.0349 9.27185C77.0349 8.7428 77.2475 8.30041 77.6679 7.93555ZM80.8744 13.3811V24.9563H77.1181V13.3811H80.8744Z" fill="#000"/>
<path d="M102.946 13.7508C103.635 14.3847 103.995 15.2239 104.032 16.2683V24.9566H100.303V17.8053C100.266 17.2215 100.169 16.7837 100.008 16.4918C99.8459 16.1999 99.5317 16.0357 99.0697 16.0038C98.1918 16.0038 97.508 16.4234 97.0183 17.2626C96.5239 18.1018 96.279 19.0869 96.279 20.2134V24.9566H92.5226V17.8053C92.4857 17.2215 92.3794 16.7837 92.1992 16.4918C92.019 16.1999 91.691 16.0357 91.2058 16.0038C90.3649 16.0038 89.7042 16.4234 89.2191 17.2626C88.7339 18.1018 88.4937 19.0686 88.4937 20.1632V24.9566H84.7373V13.3814H88.1471L88.4151 15.2102C89.3623 13.6049 90.7761 12.7976 92.6566 12.7976C93.6038 12.7976 94.3893 12.9892 95.0038 13.3677C95.6183 13.7462 96.0434 14.3072 96.279 15.0506C96.778 14.3619 97.374 13.8147 98.0625 13.4087C98.7509 13.0028 99.4624 12.7976 100.197 12.7976C101.338 12.7976 102.258 13.1169 102.946 13.7508Z" fill="#000"/>
<path d="M116.077 21.3535L117.741 24.1082C117.098 24.4639 116.415 24.7421 115.703 24.9565C114.987 25.1663 114.308 25.2757 113.665 25.2757C112.27 25.2757 111.069 25.0157 110.057 24.4958C109.045 23.9759 108.283 23.2416 107.761 22.2975C107.243 21.3535 106.984 20.2726 106.984 19.0548C106.984 17.9238 107.285 16.8839 107.885 15.9307C108.486 14.9775 109.304 14.2205 110.339 13.6686C111.374 13.1168 112.51 12.834 113.749 12.834C115.43 12.834 116.812 13.3174 117.893 14.2889C118.974 15.2603 119.677 16.6468 120 18.4483L111.415 21.1482C111.988 21.8004 112.764 22.1288 113.749 22.1288C114.497 22.1197 115.273 21.8643 116.077 21.3535ZM111.438 16.5601C110.939 17.1257 110.685 17.8827 110.685 18.8359V19.0731L115.837 17.3537C115.463 16.2591 114.663 15.7118 113.448 15.7118C112.607 15.7118 111.937 15.9946 111.438 16.5601Z" fill="#000"/>
<path d="M16.6333 0H0V16.4187H16.6333V0Z" fill="#000"/>
<path d="M25.8736 25.5401H7.39209V7.29712H25.8736V25.5401ZM9.24024 23.7158H24.0254V9.12142H9.24024V23.7158Z" fill="#000"/>
<path d="M33.2657 16.4187H16.6323V32.8374H33.2657V16.4187Z" fill="#000"/>
</svg>
