<svg width="250" height="69" viewBox="0 0 250 69" fill="#000" xmlns="http://www.w3.org/2000/svg">
<path d="M127.628 15.0426C130.381 17.4928 131.768 20.8261 131.768 25.0521C131.768 27.4737 131.296 29.7529 130.343 31.8611C129.39 33.9694 127.85 35.7168 125.703 37.0748C123.557 38.4328 120.794 39.1166 117.406 39.1166H111.592V51.9655H103.487V11.3674H115.952C120.977 11.3674 124.866 12.5925 127.628 15.0426ZM121.035 30.3132C121.969 29.6294 122.633 28.8317 123.047 27.9105C123.461 26.9894 123.663 26.1062 123.663 25.261C123.663 23.827 123.23 22.4405 122.373 21.1015C121.516 19.7625 119.86 19.0882 117.396 19.0882H111.582V31.3388H117.339C118.869 31.3388 120.101 30.997 121.035 30.3132Z" fill="#000"/>
<path d="M148.171 29.9048C149.345 28.8792 150.548 28.072 151.78 27.5022C153.012 26.9324 153.975 26.6475 154.687 26.6475L154.293 34.3682C154.071 34.3302 153.753 34.3112 153.34 34.3112C151.771 34.3112 150.394 34.7196 149.2 35.5268C148.007 36.334 147.092 37.3787 146.457 38.6417C145.822 39.9142 145.504 41.2058 145.504 42.5258V51.956H137.736V27.863H144.782L145.398 33.3806C146.072 32.089 146.996 30.9304 148.171 29.9048Z" fill="#000"/>
<path d="M161.809 16.5238C162.685 15.7736 163.686 15.3937 164.803 15.3937C165.881 15.3937 166.853 15.7736 167.71 16.5238C168.566 17.274 168.99 18.2047 168.99 19.3063C168.99 20.4079 168.557 21.3291 167.71 22.0603C166.853 22.8011 165.881 23.1619 164.803 23.1619C163.686 23.1619 162.685 22.7916 161.809 22.0603C160.933 21.3291 160.49 20.4079 160.49 19.3063C160.49 18.2047 160.933 17.2835 161.809 16.5238ZM168.489 27.8627V51.9652H160.664V27.8627H168.489Z" fill="#000"/>
<path d="M214.472 28.6323C215.907 29.9523 216.657 31.6997 216.734 33.8744V51.9655H208.966V37.0748C208.889 35.8592 208.687 34.9475 208.35 34.3397C208.013 33.732 207.359 33.3901 206.396 33.3236C204.567 33.3236 203.143 34.1973 202.122 35.9447C201.092 37.692 200.582 39.7433 200.582 42.089V51.9655H192.757V37.0748C192.68 35.8592 192.458 34.9475 192.083 34.3397C191.707 33.732 191.024 33.3901 190.013 33.3236C188.261 33.3236 186.885 34.1973 185.874 35.9447C184.863 37.692 184.363 39.7053 184.363 41.9845V51.9655H176.537V27.863H183.641L184.199 31.6712C186.173 28.3284 189.118 26.6475 193.036 26.6475C195.009 26.6475 196.645 27.0463 197.926 27.8346C199.206 28.6228 200.091 29.7909 200.582 31.3388C201.622 29.9048 202.864 28.7652 204.298 27.92C205.732 27.0748 207.214 26.6475 208.745 26.6475C211.123 26.6475 213.038 27.3122 214.472 28.6323Z" fill="#000"/>
<path d="M241.828 44.4637L245.293 50.1997C243.955 50.9404 242.53 51.5197 241.048 51.966C239.556 52.4029 238.141 52.6308 236.803 52.6308C233.896 52.6308 231.393 52.0895 229.285 51.0069C227.177 49.9242 225.589 48.3953 224.501 46.4295C223.423 44.4637 222.884 42.213 222.884 39.6774C222.884 37.3222 223.51 35.157 224.761 33.1722C226.013 31.1874 227.716 29.611 229.873 28.4619C232.029 27.3128 234.397 26.724 236.976 26.724C240.48 26.724 243.358 27.7307 245.611 29.7534C247.863 31.7762 249.326 34.6632 250 38.4144L232.115 44.0363C233.309 45.3944 234.926 46.0781 236.976 46.0781C238.536 46.0591 240.153 45.5273 241.828 44.4637ZM232.164 34.4828C231.124 35.6603 230.595 37.2368 230.595 39.2216V39.7154L241.327 36.1352C240.548 33.856 238.882 32.7164 236.351 32.7164C234.599 32.7164 233.203 33.3052 232.164 34.4828Z" fill="#000"/>
<path d="M34.6528 0H0V34.1878H34.6528V0Z" fill="#000"/>
<path d="M53.9042 53.1812H15.4011V15.1947H53.9042V53.1812ZM19.2514 49.3825H50.0539V18.9933H19.2514V49.3825Z" fill="#000"/>
<path d="M69.3044 34.1876H34.6516V68.3755H69.3044V34.1876Z" fill="#000"/>
</svg>
