<svg width="20" height="20" viewBox="0 0 20 20" fill="none" xmlns="http://www.w3.org/2000/svg">
<path d="M18.4259 14.1448V16.6538C18.4269 16.8867 18.3791 17.1173 18.2856 17.3307C18.1921 17.5441 18.0549 17.7357 17.883 17.8931C17.711 18.0506 17.508 18.1705 17.2869 18.2451C17.0658 18.3197 16.8315 18.3474 16.5991 18.3265C14.0204 18.0468 11.5435 17.1674 9.36718 15.7589C7.34244 14.4749 5.62582 12.7616 4.33921 10.7409C2.92298 8.55907 2.04163 6.07498 1.76657 3.48987C1.74563 3.2586 1.77317 3.02551 1.84743 2.80544C1.9217 2.58537 2.04107 2.38314 2.19794 2.21163C2.35481 2.04013 2.54574 1.9031 2.75858 1.80927C2.97142 1.71545 3.2015 1.66688 3.43418 1.66666H5.94816C6.35485 1.66267 6.74911 1.80639 7.05747 2.07106C7.36583 2.33572 7.56724 2.70325 7.62415 3.10516C7.73026 3.90809 7.92705 4.69648 8.21075 5.45526C8.3235 5.7546 8.3479 6.07993 8.28107 6.39269C8.21423 6.70545 8.05896 6.99254 7.83365 7.21993L6.7694 8.28207C7.96233 10.3759 9.69941 12.1095 11.7974 13.3001L12.8616 12.2379C13.0895 12.0131 13.3771 11.8581 13.6905 11.7914C14.0039 11.7247 14.3299 11.7491 14.6298 11.8616C15.3901 12.1447 16.18 12.3411 16.9846 12.447C17.3916 12.5043 17.7634 12.709 18.0292 13.022C18.2949 13.335 18.4361 13.7346 18.4259 14.1448Z" stroke="#000" stroke-width="1.5" stroke-linecap="round" stroke-linejoin="round"/>
</svg>
