<svg width="153" height="64" viewBox="0 0 153 64" fill="none" xmlns="http://www.w3.org/2000/svg">
<path opacity="0.6" d="M11.5018 46.296V59.232H9.65377V46.296H11.5018ZM4.57177 47.206C5.05711 47.206 5.50511 47.3133 5.91577 47.528C6.33577 47.7427 6.69511 48.0507 6.99377 48.452C7.29244 48.844 7.52577 49.3247 7.69377 49.894C7.87111 50.454 7.95977 51.0887 7.95977 51.798C7.95977 52.5073 7.87111 53.1467 7.69377 53.716C7.52577 54.2853 7.29244 54.7707 6.99377 55.172C6.69511 55.5733 6.33577 55.8813 5.91577 56.096C5.50511 56.3107 5.05711 56.418 4.57177 56.418C4.08644 56.418 3.63377 56.3107 3.21377 56.096C2.80311 55.8813 2.44844 55.5733 2.14977 55.172C1.85111 54.7707 1.61311 54.2853 1.43577 53.716C1.26777 53.1467 1.18377 52.5073 1.18377 51.798C1.18377 51.0887 1.26777 50.454 1.43577 49.894C1.61311 49.3247 1.85111 48.844 2.14977 48.452C2.44844 48.0507 2.80311 47.7427 3.21377 47.528C3.63377 47.3133 4.08644 47.206 4.57177 47.206ZM4.57177 48.872C4.09577 48.872 3.70844 49.1193 3.40977 49.614C3.11111 50.1087 2.96177 50.8367 2.96177 51.798C2.96177 52.7593 3.11111 53.492 3.40977 53.996C3.70844 54.4907 4.09577 54.738 4.57177 54.738C5.04777 54.738 5.43511 54.4907 5.73377 53.996C6.03244 53.492 6.18177 52.7593 6.18177 51.798C6.18177 50.8367 6.03244 50.1087 5.73377 49.614C5.43511 49.1193 5.04777 48.872 4.57177 48.872ZM20.5307 47.472V56.138H14.3287V47.472H20.5307ZM16.1487 48.928V54.682H18.7107V48.928H16.1487ZM24.3807 46.31V59.232H22.5327V46.31H24.3807ZM31.5616 49.782C31.5616 50.3047 31.6269 50.832 31.7576 51.364C31.8883 51.8867 32.0843 52.3813 32.3456 52.848C32.6163 53.3147 32.9476 53.7347 33.3396 54.108C33.7409 54.4813 34.2123 54.78 34.7536 55.004L33.7456 56.46C32.9896 56.1333 32.3549 55.6713 31.8416 55.074C31.3376 54.4767 30.9409 53.786 30.6516 53.002C30.3623 53.8513 29.9563 54.6073 29.4336 55.27C28.9203 55.9327 28.2856 56.4367 27.5296 56.782L26.4796 55.312C27.0209 55.0693 27.4923 54.7473 27.8936 54.346C28.2949 53.9447 28.6263 53.5013 28.8876 53.016C29.1583 52.5213 29.3589 51.9987 29.4896 51.448C29.6203 50.888 29.6856 50.3327 29.6856 49.782V49.068H26.9976V47.542H34.2216V49.068H31.5616V49.782ZM37.2596 46.31V59.204H35.4116V46.31H37.2596ZM45.6944 54.71C45.909 54.7007 46.1284 54.696 46.3524 54.696C46.5764 54.6867 46.8004 54.6773 47.0244 54.668V48.984H45.6944V54.71ZM48.8024 54.542C49.0544 54.5233 49.3017 54.5047 49.5444 54.486C49.7964 54.4673 50.0437 54.4393 50.2864 54.402L50.3984 55.746C49.745 55.858 49.0777 55.9513 48.3964 56.026C47.715 56.0913 47.0384 56.1427 46.3664 56.18C45.7037 56.2173 45.055 56.2407 44.4204 56.25C43.795 56.2593 43.207 56.264 42.6564 56.264L42.4604 54.752H43.9024V48.984H42.7964V47.5H49.9084V48.984H48.8024V54.542ZM54.5984 52.708H52.7224V59.218H50.8744V46.324H52.7224V51.182H54.5984V52.708ZM66.2173 52.764H64.3553V46.31H66.2173V52.764ZM57.4813 49.628C57.4813 50.0947 57.6399 50.454 57.9573 50.706C58.2746 50.958 58.6713 51.084 59.1473 51.084C59.6233 51.084 60.0153 50.958 60.3233 50.706C60.6313 50.454 60.7853 50.0947 60.7853 49.628C60.7853 49.1707 60.6313 48.816 60.3233 48.564C60.0153 48.3027 59.6233 48.172 59.1473 48.172C58.6713 48.172 58.2746 48.3027 57.9573 48.564C57.6399 48.816 57.4813 49.1707 57.4813 49.628ZM62.5773 49.628C62.5773 50.0573 62.4886 50.454 62.3113 50.818C62.1433 51.182 61.9053 51.4947 61.5973 51.756C61.2893 52.0173 60.9253 52.2227 60.5053 52.372C60.0853 52.512 59.6326 52.582 59.1473 52.582C58.6526 52.582 58.1953 52.512 57.7753 52.372C57.3553 52.2227 56.9913 52.0173 56.6833 51.756C56.3753 51.4947 56.1326 51.182 55.9553 50.818C55.7779 50.454 55.6893 50.0573 55.6893 49.628C55.6893 49.1987 55.7779 48.8067 55.9553 48.452C56.1326 48.088 56.3753 47.7753 56.6833 47.514C56.9913 47.2527 57.3553 47.052 57.7753 46.912C58.1953 46.7627 58.6526 46.688 59.1473 46.688C59.6326 46.688 60.0853 46.7627 60.5053 46.912C60.9253 47.052 61.2893 47.2527 61.5973 47.514C61.9053 47.7753 62.1433 48.088 62.3113 48.452C62.4886 48.8067 62.5773 49.1987 62.5773 49.628ZM66.5393 57.622V59.064H57.6353V55.494H64.3833V54.71H57.6213V53.296H66.2173V56.81H59.4693V57.622H66.5393ZM74.2102 47.85C73.2768 47.85 72.5862 47.92 72.1382 48.06C71.6902 48.1907 71.4662 48.4007 71.4662 48.69C71.4662 48.9887 71.6902 49.208 72.1382 49.348C72.5862 49.4787 73.2768 49.544 74.2102 49.544C75.1528 49.544 75.8482 49.4787 76.2962 49.348C76.7442 49.208 76.9682 48.9887 76.9682 48.69C76.9682 48.4007 76.7442 48.1907 76.2962 48.06C75.8482 47.92 75.1528 47.85 74.2102 47.85ZM74.2102 50.888C72.7355 50.888 71.5875 50.7013 70.7662 50.328C69.9542 49.9547 69.5482 49.4087 69.5482 48.69C69.5482 47.9807 69.9542 47.4393 70.7662 47.066C71.5875 46.6833 72.7355 46.492 74.2102 46.492C75.6942 46.492 76.8422 46.6833 77.6542 47.066C78.4755 47.4393 78.8862 47.9807 78.8862 48.69C78.8862 49.4087 78.4755 49.9547 77.6542 50.328C76.8422 50.7013 75.6942 50.888 74.2102 50.888ZM71.5642 57.72H78.9562V59.106H69.7302V55.718H76.8002V55.032H69.7162V53.674H78.6202V56.992H71.5642V57.72ZM80.0342 51.504V52.946H68.3862V51.504H80.0342ZM91.339 53.674C90.611 53.4873 89.9903 53.2027 89.477 52.82C88.973 52.4373 88.5716 51.9847 88.273 51.462C87.993 52.0313 87.5963 52.526 87.083 52.946C86.579 53.366 85.949 53.6833 85.193 53.898L84.339 52.47C84.8523 52.33 85.2956 52.1387 85.669 51.896C86.0516 51.6533 86.3643 51.3827 86.607 51.084C86.8496 50.776 87.027 50.4493 87.139 50.104C87.2603 49.7493 87.321 49.3947 87.321 49.04H84.801V47.584H87.321V46.268H89.169V47.584H91.717V49.04H89.169C89.169 49.376 89.225 49.7073 89.337 50.034C89.4583 50.3607 89.6403 50.6687 89.883 50.958C90.135 51.238 90.4476 51.49 90.821 51.714C91.2036 51.938 91.6563 52.1153 92.179 52.246L91.339 53.674ZM88.455 57.608H93.411V55.872H88.455V57.608ZM86.635 54.416H95.217V59.064H86.635V54.416ZM95.217 46.31V53.856H93.369V51.168H91.423V49.684H93.369V46.31H95.217ZM105.786 49.712H100.48V51.042H105.786V49.712ZM107.606 52.512H98.6459V46.8H100.48V48.27H105.786V46.8H107.606V52.512ZM108.992 55.2H104.036V59.218H102.188V55.2H97.3159V53.73H108.992V55.2ZM113.919 55.06C114.357 55.06 114.717 54.9247 114.997 54.654C115.277 54.374 115.417 53.982 115.417 53.478C115.417 52.9927 115.277 52.61 114.997 52.33C114.717 52.05 114.357 51.91 113.919 51.91C113.48 51.91 113.116 52.05 112.827 52.33C112.547 52.61 112.407 52.9973 112.407 53.492C112.407 53.9867 112.547 54.374 112.827 54.654C113.116 54.9247 113.48 55.06 113.919 55.06ZM113.919 50.412C114.385 50.412 114.815 50.4867 115.207 50.636C115.608 50.7853 115.953 51 116.243 51.28C116.532 51.5507 116.756 51.8727 116.915 52.246C117.083 52.6193 117.167 53.03 117.167 53.478C117.167 53.9353 117.083 54.3553 116.915 54.738C116.756 55.1113 116.532 55.438 116.243 55.718C115.953 55.9887 115.608 56.1987 115.207 56.348C114.815 56.4973 114.385 56.572 113.919 56.572C113.452 56.572 113.018 56.4973 112.617 56.348C112.215 56.1987 111.865 55.9887 111.567 55.718C111.277 55.438 111.049 55.1113 110.881 54.738C110.722 54.3553 110.643 53.9353 110.643 53.478C110.643 53.03 110.722 52.6193 110.881 52.246C111.049 51.8727 111.277 51.5507 111.567 51.28C111.865 51 112.215 50.7853 112.617 50.636C113.018 50.4867 113.452 50.412 113.919 50.412ZM114.829 48.214H117.629V49.684H110.125V48.214H112.981V46.534H114.829V48.214ZM122.165 52.876H120.317V59.204H118.469V46.31H120.317V51.35H122.165V52.876ZM127.19 49.53C127.19 50.0527 127.227 50.5753 127.302 51.098C127.376 51.6113 127.502 52.106 127.68 52.582C127.866 53.0487 128.104 53.4827 128.394 53.884C128.692 54.2853 129.061 54.6307 129.5 54.92L128.492 56.348C127.941 56.012 127.488 55.5827 127.134 55.06C126.788 54.528 126.513 53.9353 126.308 53.282C126.084 54.0007 125.78 54.654 125.398 55.242C125.015 55.8207 124.53 56.2873 123.942 56.642L122.836 55.256C123.312 54.9667 123.713 54.612 124.04 54.192C124.366 53.772 124.628 53.3147 124.824 52.82C125.029 52.3253 125.178 51.8027 125.272 51.252C125.365 50.7013 125.412 50.1507 125.412 49.6V47.43H127.19V49.53ZM129.766 46.52H131.488V58.63H129.766V52.162H128.156V50.664H129.766V46.52ZM134.134 46.31V59.204H132.384V46.31H134.134ZM140.363 56.208H143.205V53.744C142.757 53.828 142.281 53.87 141.777 53.87C141.282 53.87 140.811 53.828 140.363 53.744V56.208ZM141.777 48.396C140.881 48.396 140.157 48.5733 139.607 48.928C139.065 49.2733 138.795 49.768 138.795 50.412C138.795 50.7293 138.865 51.014 139.005 51.266C139.154 51.518 139.355 51.7327 139.607 51.91C139.868 52.078 140.181 52.2087 140.545 52.302C140.918 52.386 141.329 52.428 141.777 52.428C142.225 52.428 142.631 52.386 142.995 52.302C143.368 52.2087 143.685 52.078 143.947 51.91C144.208 51.7327 144.409 51.518 144.549 51.266C144.698 51.014 144.773 50.7293 144.773 50.412C144.773 50.0947 144.698 49.81 144.549 49.558C144.409 49.306 144.208 49.096 143.947 48.928C143.685 48.7507 143.368 48.62 142.995 48.536C142.631 48.4427 142.225 48.396 141.777 48.396ZM147.629 56.208V57.706H135.953V56.208H138.529V53.058C138.034 52.7593 137.647 52.386 137.367 51.938C137.096 51.4807 136.965 50.972 136.975 50.412C136.975 49.88 137.091 49.404 137.325 48.984C137.567 48.5547 137.903 48.1907 138.333 47.892C138.762 47.584 139.271 47.3507 139.859 47.192C140.447 47.024 141.086 46.94 141.777 46.94C142.477 46.94 143.121 47.024 143.709 47.192C144.297 47.3507 144.801 47.584 145.221 47.892C145.65 48.1907 145.986 48.5547 146.229 48.984C146.471 49.404 146.593 49.88 146.593 50.412C146.593 50.972 146.453 51.4807 146.173 51.938C145.902 52.386 145.524 52.7593 145.039 53.058V56.208H147.629ZM150.497 58.196C150.133 58.196 149.83 58.07 149.587 57.818C149.345 57.5567 149.223 57.2347 149.223 56.852C149.223 56.4693 149.345 56.152 149.587 55.9C149.83 55.6387 150.133 55.508 150.497 55.508C150.871 55.508 151.179 55.6387 151.421 55.9C151.664 56.152 151.785 56.4693 151.785 56.852C151.785 57.2347 151.664 57.5567 151.421 57.818C151.179 58.07 150.871 58.196 150.497 58.196Z" fill="#707683"/>
<g opacity="0.6">
<path d="M92 28.5C92 29.2956 91.6839 30.0587 91.1213 30.6213C90.5587 31.1839 89.7956 31.5 89 31.5H65C64.2043 31.5 63.4413 31.1839 62.8787 30.6213C62.3161 30.0587 62 29.2956 62 28.5V7.5C62 6.70435 62.3161 5.94129 62.8787 5.37868C63.4413 4.81607 64.2043 4.5 65 4.5H72.5L75.5 9H89C89.7956 9 90.5587 9.31607 91.1213 9.87868C91.6839 10.4413 92 11.2044 92 12V28.5Z" stroke="#707683" stroke-width="2" stroke-linecap="round" stroke-linejoin="round"/>
<path d="M77 16.5V25.5" stroke="#000" stroke-width="2" stroke-linecap="round" stroke-linejoin="round"/>
<path d="M72.5 21H81.5" stroke="#000" stroke-width="2" stroke-linecap="round" stroke-linejoin="round"/>
</g>
</svg>
